Coordinates
version=1
nRows=14
nColumns=63
inDegrees=yes

Units are S.I. units (second, meters, Newtons, ...)
If the header above contains a line with 'inDegrees', this indicates whether rotational values are in degrees (yes) or radians (no).

endheader
time	pelvis_tilt	pelvis_list	pelvis_rotation	pelvis_tx	pelvis_ty	pelvis_tz	hip_flexion_r	hip_adduction_r	hip_rotation_r	knee_angle_r	knee_angle_r_beta	ankle_angle_r	subtalar_angle_r	mtp_angle_r	hip_flexion_l	hip_adduction_l	hip_rotation_l	knee_angle_l	knee_angle_l_beta	ankle_angle_l	subtalar_angle_l	mtp_angle_l	L5_S1_Flex_Ext	L5_S1_Lat_Bending	L5_S1_axial_rotation	L4_L5_Flex_Ext	L4_L5_Lat_Bending	L4_L5_axial_rotation	L3_L4_Flex_Ext	L3_L4_Lat_Bending	L3_L4_axial_rotation	L2_L3_Flex_Ext	L2_L3_Lat_Bending	L2_L3_axial_rotation	L1_L2_Flex_Ext	L1_L2_Lat_Bending	L1_L2_axial_rotation	L1_T12_Flex_Ext	L1_T12_Lat_Bending	L1_T12_axial_rotation	Abs_r3	Abs_r2	Abs_r1	Abs_t1	Abs_t2	neck_flexion	neck_bending	neck_rotation	arm_flex_r	arm_add_r	arm_rot_r	elbow_flex_r	pro_sup_r	wrist_flex_r	wrist_dev_r	arm_flex_l	arm_add_l	arm_rot_l	elbow_flex_l	pro_sup_l	wrist_flex_l	wrist_dev_l
0.840909	-9.312951	-1.176779	88.256131	0.136202	0.528412	0.789256	0.889746	-2.584373	1.998349	11.630432	0.202989	33.704720	5.846087	0.000000	10.079918	-0.203625	-17.397079	31.707211	0.553395	32.547666	3.177635	0.000000	0.104013	0.118656	-0.274117	0.193163	0.157812	-0.291249	0.170883	0.288500	-0.291249	0.118877	0.288500	-0.239852	0.096587	0.241963	-0.222720	0.059433	0.183798	-0.205588	0.742955	1.342259	-1.524556	0.000000	0.000000	15.431772	-1.575874	7.167915	-10.641701	-22.600265	27.802458	48.956109	87.393923	-1.169137	6.162178	-10.650405	-19.902595	44.414290	32.018872	68.468403	-7.073614	-0.068705
0.863636	-9.717718	-0.882110	87.738023	0.138716	0.528934	0.789825	0.432352	-3.041098	1.527923	11.282078	0.196909	33.667497	7.396096	0.000000	10.263110	-0.387347	-18.306414	32.867341	0.573643	31.594844	3.984790	0.000000	0.110657	0.125679	-0.439278	0.205501	0.167153	-0.466733	0.181798	0.305577	-0.466733	0.126470	0.305577	-0.384369	0.102756	0.256285	-0.356914	0.063229	0.194677	-0.329459	0.790410	1.421709	-2.443134	0.000000	0.000000	15.283953	-1.130171	6.311494	-9.703855	-22.884567	29.425696	47.689879	87.089942	-0.652989	6.174844	-11.765977	-19.229266	42.795771	31.313435	67.200392	-5.267323	-0.068586
0.886364	-10.127059	-0.552123	87.296879	0.141146	0.529382	0.790433	-0.006303	-3.488370	1.113086	11.030706	0.192522	33.685468	8.729511	0.000000	10.416761	-0.519628	-19.001732	33.965632	0.592812	30.708400	4.691571	0.000000	0.112722	0.126098	-0.615722	0.209337	0.167710	-0.654205	0.185191	0.306595	-0.654205	0.128830	0.306595	-0.538757	0.104674	0.257139	-0.500274	0.064410	0.195326	-0.461792	0.805164	1.426446	-3.424462	0.000000	0.000000	15.173878	-0.633018	5.527649	-8.641487	-23.045996	31.177869	46.528206	86.715987	-0.081182	6.309367	-13.131242	-18.407999	40.252850	31.205598	66.649245	-3.498752	0.371542
0.909091	-10.528858	-0.189917	86.969428	0.143417	0.529779	0.791066	-0.439197	-3.919806	0.720990	10.853900	0.189436	33.746308	9.841075	0.000000	10.539988	-0.605112	-19.492254	34.991826	0.610723	29.923512	5.339203	0.000000	0.113098	0.122103	-0.812961	0.210035	0.162398	-0.863771	0.185809	0.296882	-0.863771	0.129260	0.296882	-0.711341	0.105023	0.248993	-0.660530	0.064624	0.189138	-0.609720	0.807849	1.381259	-4.521443	0.000000	0.000000	15.071951	-0.136704	4.848112	-7.446687	-23.142513	33.155037	45.481860	86.262959	0.471744	6.514099	-14.737602	-17.470996	36.932427	31.606119	66.821760	-1.928575	1.136115
0.931818	-10.922856	0.214682	86.752198	0.145509	0.530181	0.791681	-0.898919	-4.329748	0.394848	10.723713	0.187164	33.819273	10.670853	0.000000	10.605158	-0.629171	-19.759674	35.923303	0.626980	29.220930	5.872126	0.000000	0.111715	0.115429	-1.018721	0.207467	0.153521	-1.082391	0.183537	0.280654	-1.082391	0.127680	0.280654	-0.891381	0.103739	0.235383	-0.827711	0.063834	0.178800	-0.764041	0.797972	1.305756	-5.665822	0.000000	0.000000	14.979798	0.304446	4.309930	-6.226724	-23.183046	35.187058	44.596892	85.844121	0.882645	6.719633	-16.456878	-16.489579	33.182771	32.358879	67.712795	-0.572049	2.136944
0.954545	-11.291790	0.620297	86.630859	0.147437	0.530560	0.792187	-1.349261	-4.700359	0.136830	10.639501	0.185694	33.893122	11.242216	0.000000	10.644815	-0.617081	-19.846113	36.766068	0.641689	28.599087	6.303555	0.000000	0.117149	0.108506	-1.218531	0.217557	0.144313	-1.294689	0.192463	0.263822	-1.294689	0.133889	0.263822	-1.066215	0.108784	0.221266	-0.990056	0.066939	0.168076	-0.913898	0.836780	1.227443	-6.777103	0.000000	0.000000	14.895176	0.650688	3.797927	-5.081502	-23.178477	37.169622	43.850751	85.351133	1.079440	6.748868	-18.215277	-15.513695	29.230729	33.373912	69.341669	0.431546	3.388363
0.977273	-11.654076	1.052401	86.582623	0.149253	0.530988	0.792620	-1.831673	-5.053094	-0.059091	10.573857	0.184549	33.941891	11.592220	0.000000	10.610239	-0.547797	-19.804862	37.484416	0.654226	28.032370	6.636636	0.000000	0.124638	0.100487	-1.395393	0.231465	0.133648	-1.482606	0.204768	0.244324	-1.482606	0.142449	0.244324	-1.220969	0.115739	0.204913	-1.133757	0.071218	0.155654	-1.046545	0.890276	1.136728	-7.760760	0.000000	0.000000	14.859559	0.875279	3.289734	-4.071024	-23.113973	38.970139	43.259541	84.935609	0.991114	6.646679	-19.805631	-14.651772	25.586963	34.495389	71.663827	1.010087	4.848111
1.000000	-12.004972	1.499121	86.596621	0.150956	0.531465	0.792993	-2.336254	-5.383080	-0.185356	10.523425	0.183668	33.954308	11.723079	0.000000	10.511873	-0.430582	-19.664384	38.081705	0.664651	27.492896	6.865155	0.000000	0.135343	0.094353	-1.536688	0.251346	0.125490	-1.632731	0.222356	0.229410	-1.632731	0.154684	0.229410	-1.344602	0.125680	0.192405	-1.248559	0.077335	0.146153	-1.152516	0.966745	1.067343	-8.546599	0.000000	0.000000	14.883658	1.019591	2.856663	-3.300580	-22.990302	40.360287	42.871602	84.658083	0.662543	6.407300	-21.082082	-13.948315	22.588131	35.609582	74.642685	1.232605	6.513230
1.022727	-12.348760	1.950543	86.678446	0.152585	0.531971	0.793325	-2.858593	-5.688447	-0.228980	10.480761	0.182924	33.918442	11.616502	0.000000	10.361710	-0.274046	-19.453822	38.569933	0.673172	26.969729	7.022707	0.000000	0.149591	0.089580	-1.649097	0.277805	0.119141	-1.752165	0.245762	0.217804	-1.752165	0.170967	0.217804	-1.442960	0.138910	0.182671	-1.339891	0.085476	0.138759	-1.236822	1.068511	1.013345	-9.171781	0.000000	0.000000	14.950408	1.132268	2.521181	-2.739250	-22.816834	41.392975	42.666486	84.517356	0.189577	5.997543	-22.052104	-13.410127	20.200410	36.709304	78.240419	1.224750	8.330066
1.045455	-12.693164	2.401298	86.792896	0.154188	0.532475	0.793629	-3.388192	-5.979353	-0.165561	10.441791	0.182244	33.847876	11.307727	0.000000	10.160832	-0.078008	-19.220865	38.948680	0.679783	26.469953	7.116904	0.000000	0.166305	0.084712	-1.732208	0.308846	0.112667	-1.840471	0.273223	0.205969	-1.840471	0.190070	0.205969	-1.515682	0.154431	0.172745	-1.407419	0.095027	0.131219	-1.299156	1.187902	0.958281	-9.634023	0.000000	0.000000	15.042653	1.235447	2.255148	-2.376162	-22.582011	42.028415	42.655687	84.508913	-0.258013	5.601623	-22.778183	-13.039525	18.294726	37.814910	82.264601	0.974879	10.141975
1.068182	-13.026727	2.841941	86.921592	0.155771	0.532956	0.793934	-3.910698	-6.257780	-0.097446	10.400152	0.181517	33.773035	10.984218	0.000000	9.925416	0.138741	-18.983073	39.232005	0.684728	26.013987	7.156753	0.000000	0.184464	0.081102	-1.785865	0.342568	0.107866	-1.897482	0.303056	0.197192	-1.897482	0.210824	0.197192	-1.562632	0.171293	0.165384	-1.451016	0.105403	0.125628	-1.339399	1.317607	0.917447	-9.932448	0.000000	0.000000	15.139861	1.365967	2.115187	-2.206147	-22.269988	42.200710	42.836504	84.620493	-0.521424	5.388875	-23.234396	-12.846321	17.116163	38.875991	85.838119	0.448370	11.712500
1.090909	-13.350383	3.273310	87.057362	0.157340	0.533416	0.794278	-4.426095	-6.518950	0.017042	10.348264	0.180611	33.691071	10.615809	0.000000	9.661811	0.370112	-18.753921	39.432187	0.688221	25.628610	7.160703	0.000000	0.201727	0.077482	-1.821233	0.374627	0.103051	-1.935061	0.331417	0.188389	-1.935061	0.230553	0.188389	-1.593579	0.187323	0.158001	-1.479752	0.115267	0.120019	-1.365925	1.440914	0.876490	-10.129154	0.000000	0.000000	15.214044	1.498472	2.073207	-2.120525	-21.897359	42.139121	43.140857	84.798004	-0.701903	5.373374	-23.462810	-12.821747	16.689330	39.879897	88.397623	-0.170246	12.984748
1.113636	-13.665129	3.695715	87.157525	0.158946	0.533869	0.794667	-4.927376	-6.768930	0.193508	10.278845	0.179400	33.604985	10.243250	0.000000	9.360128	0.608830	-18.591951	39.540185	0.690106	25.320352	7.144391	0.000000	0.216767	0.073887	-1.845075	0.402558	0.098270	-1.960392	0.356126	0.179650	-1.960392	0.247743	0.179650	-1.614441	0.201290	0.150671	-1.499124	0.123861	0.114451	-1.383806	1.548345	0.835828	-10.261755	0.000000	0.000000	15.206703	1.655356	2.258483	-2.033628	-21.479530	42.034322	43.468789	85.027740	-0.900948	5.425484	-23.563763	-12.915060	16.708046	40.784001	90.104369	-0.701700	13.995614
1.136364	-13.959409	4.097443	87.248502	0.160534	0.534320	0.795129	-5.404319	-6.994253	0.365719	10.193726	0.177914	33.522284	9.906722	0.000000	9.041856	0.838557	-18.468303	39.579891	0.690799	25.081236	7.127885	0.000000	0.230751	0.070288	-1.863815	0.428527	0.093483	-1.980303	0.379101	0.170898	-1.980303	0.263725	0.170898	-1.630838	0.214275	0.143331	-1.514350	0.131851	0.108876	-1.397861	1.648230	0.795109	-10.365980	0.000000	0.000000	15.105134	1.733001	2.506761	-1.913391	-21.049124	41.941018	43.774151	85.306415	-0.959561	5.613473	-23.534122	-13.140415	17.259773	41.585379	90.781297	-1.092747	14.814276
